<mxfile host="Electron" agent="Mozilla/5.0 (Windows NT 10.0; Win64; x64) AppleWebKit/537.36 (KHTML, like Gecko) draw.io/24.7.17 Chrome/128.0.6613.36 Electron/32.0.1 Safari/537.36" version="24.7.17">
  <diagram name="Page-1" id="yfaTPAsfW7tibvKYr71D">
    <mxGraphModel dx="993" dy="660" grid="1" gridSize="10" guides="1" tooltips="1" connect="1" arrows="1" fold="1" page="1" pageScale="1" pageWidth="850" pageHeight="1100" math="0" shadow="0">
      <root>
        <mxCell id="0" />
        <mxCell id="1" parent="0" />
        <mxCell id="k1vexpL1M8fCgpXoWTq0-5" style="edgeStyle=orthogonalEdgeStyle;rounded=0;orthogonalLoop=1;jettySize=auto;html=1;exitX=0.5;exitY=1;exitDx=0;exitDy=0;" edge="1" parent="1" source="k1vexpL1M8fCgpXoWTq0-1" target="k1vexpL1M8fCgpXoWTq0-2">
          <mxGeometry relative="1" as="geometry" />
        </mxCell>
        <mxCell id="k1vexpL1M8fCgpXoWTq0-1" value="detection args&amp;nbsp;" style="rounded=0;whiteSpace=wrap;html=1;" vertex="1" parent="1">
          <mxGeometry x="160" y="90" width="120" height="60" as="geometry" />
        </mxCell>
        <mxCell id="k1vexpL1M8fCgpXoWTq0-4" style="edgeStyle=orthogonalEdgeStyle;rounded=0;orthogonalLoop=1;jettySize=auto;html=1;exitX=1;exitY=0.5;exitDx=0;exitDy=0;" edge="1" parent="1" source="k1vexpL1M8fCgpXoWTq0-2" target="k1vexpL1M8fCgpXoWTq0-3">
          <mxGeometry relative="1" as="geometry" />
        </mxCell>
        <mxCell id="k1vexpL1M8fCgpXoWTq0-7" style="edgeStyle=orthogonalEdgeStyle;rounded=0;orthogonalLoop=1;jettySize=auto;html=1;exitX=0.5;exitY=1;exitDx=0;exitDy=0;entryX=0.5;entryY=0;entryDx=0;entryDy=0;" edge="1" parent="1" source="k1vexpL1M8fCgpXoWTq0-2" target="k1vexpL1M8fCgpXoWTq0-6">
          <mxGeometry relative="1" as="geometry" />
        </mxCell>
        <mxCell id="k1vexpL1M8fCgpXoWTq0-2" value="threshold cheking" style="rounded=1;whiteSpace=wrap;html=1;" vertex="1" parent="1">
          <mxGeometry x="160" y="220" width="120" height="60" as="geometry" />
        </mxCell>
        <mxCell id="k1vexpL1M8fCgpXoWTq0-3" value="print metadata and threshold" style="ellipse;whiteSpace=wrap;html=1;" vertex="1" parent="1">
          <mxGeometry x="425" y="220" width="120" height="80" as="geometry" />
        </mxCell>
        <mxCell id="k1vexpL1M8fCgpXoWTq0-9" style="edgeStyle=orthogonalEdgeStyle;rounded=0;orthogonalLoop=1;jettySize=auto;html=1;exitX=0.5;exitY=1;exitDx=0;exitDy=0;entryX=0.5;entryY=0;entryDx=0;entryDy=0;" edge="1" parent="1" source="k1vexpL1M8fCgpXoWTq0-6" target="k1vexpL1M8fCgpXoWTq0-8">
          <mxGeometry relative="1" as="geometry" />
        </mxCell>
        <mxCell id="k1vexpL1M8fCgpXoWTq0-6" value="open fie take rdd and det both in/and out" style="rounded=1;whiteSpace=wrap;html=1;" vertex="1" parent="1">
          <mxGeometry x="160" y="320" width="120" height="60" as="geometry" />
        </mxCell>
        <mxCell id="k1vexpL1M8fCgpXoWTq0-11" style="edgeStyle=orthogonalEdgeStyle;rounded=0;orthogonalLoop=1;jettySize=auto;html=1;exitX=0.5;exitY=1;exitDx=0;exitDy=0;" edge="1" parent="1" source="k1vexpL1M8fCgpXoWTq0-8" target="k1vexpL1M8fCgpXoWTq0-10">
          <mxGeometry relative="1" as="geometry" />
        </mxCell>
        <mxCell id="k1vexpL1M8fCgpXoWTq0-8" value="process log fun called&lt;div&gt;&lt;br&gt;&lt;/div&gt;" style="rounded=1;whiteSpace=wrap;html=1;" vertex="1" parent="1">
          <mxGeometry x="160" y="410" width="120" height="60" as="geometry" />
        </mxCell>
        <mxCell id="k1vexpL1M8fCgpXoWTq0-13" style="edgeStyle=orthogonalEdgeStyle;rounded=0;orthogonalLoop=1;jettySize=auto;html=1;exitX=0.5;exitY=1;exitDx=0;exitDy=0;entryX=0.5;entryY=0;entryDx=0;entryDy=0;" edge="1" parent="1" source="k1vexpL1M8fCgpXoWTq0-10" target="k1vexpL1M8fCgpXoWTq0-12">
          <mxGeometry relative="1" as="geometry" />
        </mxCell>
        <mxCell id="k1vexpL1M8fCgpXoWTq0-10" value="main&lt;div&gt;&lt;br&gt;&lt;/div&gt;" style="rounded=1;whiteSpace=wrap;html=1;" vertex="1" parent="1">
          <mxGeometry x="160" y="510" width="120" height="60" as="geometry" />
        </mxCell>
        <mxCell id="k1vexpL1M8fCgpXoWTq0-14" style="edgeStyle=orthogonalEdgeStyle;rounded=0;orthogonalLoop=1;jettySize=auto;html=1;exitX=0.5;exitY=1;exitDx=0;exitDy=0;" edge="1" parent="1" source="k1vexpL1M8fCgpXoWTq0-12">
          <mxGeometry relative="1" as="geometry">
            <mxPoint x="220" y="720" as="targetPoint" />
          </mxGeometry>
        </mxCell>
        <mxCell id="k1vexpL1M8fCgpXoWTq0-12" value="give max values and then see intrested col&amp;nbsp;&lt;div&gt;&lt;br&gt;&lt;/div&gt;" style="rounded=1;whiteSpace=wrap;html=1;" vertex="1" parent="1">
          <mxGeometry x="160" y="610" width="120" height="60" as="geometry" />
        </mxCell>
        <mxCell id="k1vexpL1M8fCgpXoWTq0-17" style="edgeStyle=orthogonalEdgeStyle;rounded=0;orthogonalLoop=1;jettySize=auto;html=1;exitX=0.5;exitY=1;exitDx=0;exitDy=0;" edge="1" parent="1" source="k1vexpL1M8fCgpXoWTq0-15" target="k1vexpL1M8fCgpXoWTq0-16">
          <mxGeometry relative="1" as="geometry" />
        </mxCell>
        <mxCell id="k1vexpL1M8fCgpXoWTq0-15" value="then all the intrested col in csv both det,rdd and vsh and sim(r0)" style="rounded=1;whiteSpace=wrap;html=1;" vertex="1" parent="1">
          <mxGeometry x="160" y="710" width="120" height="60" as="geometry" />
        </mxCell>
        <mxCell id="k1vexpL1M8fCgpXoWTq0-20" style="edgeStyle=orthogonalEdgeStyle;rounded=0;orthogonalLoop=1;jettySize=auto;html=1;exitX=0.5;exitY=1;exitDx=0;exitDy=0;" edge="1" parent="1" source="k1vexpL1M8fCgpXoWTq0-16">
          <mxGeometry relative="1" as="geometry">
            <mxPoint x="220" y="900" as="targetPoint" />
          </mxGeometry>
        </mxCell>
        <mxCell id="k1vexpL1M8fCgpXoWTq0-26" style="edgeStyle=orthogonalEdgeStyle;rounded=0;orthogonalLoop=1;jettySize=auto;html=1;exitX=1;exitY=0.5;exitDx=0;exitDy=0;entryX=0;entryY=0.5;entryDx=0;entryDy=0;" edge="1" parent="1" source="k1vexpL1M8fCgpXoWTq0-16" target="k1vexpL1M8fCgpXoWTq0-25">
          <mxGeometry relative="1" as="geometry" />
        </mxCell>
        <mxCell id="k1vexpL1M8fCgpXoWTq0-16" value="compute matched(&lt;div&gt;rdd_ridx, rdddidx, rdd1,rdd2(range_rangerate)&lt;/div&gt;&lt;div&gt;&amp;nbsp;&lt;/div&gt;" style="rounded=1;whiteSpace=wrap;html=1;" vertex="1" parent="1">
          <mxGeometry x="130" y="810" width="180" height="70" as="geometry" />
        </mxCell>
        <mxCell id="k1vexpL1M8fCgpXoWTq0-19" value="print the si percentage match&lt;div&gt;&lt;br&gt;&lt;/div&gt;" style="ellipse;whiteSpace=wrap;html=1;" vertex="1" parent="1">
          <mxGeometry x="680" y="790" width="120" height="60" as="geometry" />
        </mxCell>
        <mxCell id="k1vexpL1M8fCgpXoWTq0-23" style="edgeStyle=orthogonalEdgeStyle;rounded=0;orthogonalLoop=1;jettySize=auto;html=1;exitX=0.5;exitY=1;exitDx=0;exitDy=0;entryX=0.5;entryY=0;entryDx=0;entryDy=0;" edge="1" parent="1" source="k1vexpL1M8fCgpXoWTq0-21" target="k1vexpL1M8fCgpXoWTq0-22">
          <mxGeometry relative="1" as="geometry" />
        </mxCell>
        <mxCell id="k1vexpL1M8fCgpXoWTq0-28" style="edgeStyle=orthogonalEdgeStyle;rounded=0;orthogonalLoop=1;jettySize=auto;html=1;exitX=1;exitY=0.5;exitDx=0;exitDy=0;" edge="1" parent="1" source="k1vexpL1M8fCgpXoWTq0-21" target="k1vexpL1M8fCgpXoWTq0-24">
          <mxGeometry relative="1" as="geometry" />
        </mxCell>
        <mxCell id="k1vexpL1M8fCgpXoWTq0-21" value="&lt;div style=&quot;background-color: rgb(0, 0, 0); font-family: Consolas, &amp;quot;Courier New&amp;quot;, monospace; font-size: 14px; line-height: 19px; white-space: pre;&quot;&gt;&lt;font color=&quot;#ffffff&quot;&gt;Compute matches &lt;/font&gt;&lt;/div&gt;&lt;div style=&quot;background-color: rgb(0, 0, 0); font-family: Consolas, &amp;quot;Courier New&amp;quot;, monospace; font-size: 14px; line-height: 19px; white-space: pre;&quot;&gt;&lt;font color=&quot;#ffffff&quot;&gt;within thresholds for &lt;/font&gt;&lt;/div&gt;&lt;div style=&quot;background-color: rgb(0, 0, 0); font-family: Consolas, &amp;quot;Courier New&amp;quot;, monospace; font-size: 14px; line-height: 19px; white-space: pre;&quot;&gt;&lt;font color=&quot;#ffffff&quot;&gt;rdd2_range and &lt;/font&gt;&lt;/div&gt;&lt;div style=&quot;background-color: rgb(0, 0, 0); font-family: Consolas, &amp;quot;Courier New&amp;quot;, monospace; font-size: 14px; line-height: 19px; white-space: pre;&quot;&gt;&lt;font color=&quot;#ffffff&quot;&gt;rdd2_range_rate&lt;/font&gt;&lt;/div&gt;" style="rounded=1;whiteSpace=wrap;html=1;" vertex="1" parent="1">
          <mxGeometry x="130" y="900" width="210" height="130" as="geometry" />
        </mxCell>
        <mxCell id="k1vexpL1M8fCgpXoWTq0-22" value="print accuracy" style="ellipse;whiteSpace=wrap;html=1;" vertex="1" parent="1">
          <mxGeometry x="205" y="1080" width="120" height="80" as="geometry" />
        </mxCell>
        <mxCell id="k1vexpL1M8fCgpXoWTq0-24" value="" style="whiteSpace=wrap;html=1;aspect=fixed;" vertex="1" parent="1">
          <mxGeometry x="490" y="925" width="175" height="175" as="geometry" />
        </mxCell>
        <mxCell id="k1vexpL1M8fCgpXoWTq0-27" style="edgeStyle=orthogonalEdgeStyle;rounded=0;orthogonalLoop=1;jettySize=auto;html=1;exitX=1;exitY=0.5;exitDx=0;exitDy=0;" edge="1" parent="1" source="k1vexpL1M8fCgpXoWTq0-25" target="k1vexpL1M8fCgpXoWTq0-19">
          <mxGeometry relative="1" as="geometry" />
        </mxCell>
        <mxCell id="k1vexpL1M8fCgpXoWTq0-25" value="" style="whiteSpace=wrap;html=1;aspect=fixed;" vertex="1" parent="1">
          <mxGeometry x="410" y="730" width="170" height="170" as="geometry" />
        </mxCell>
      </root>
    </mxGraphModel>
  </diagram>
</mxfile>
